<?xml version="1.0" encoding="UTF-8"?>
<svg width="65px" height="65px" viewBox="0 0 65 65" version="1.1" xmlns="http://www.w3.org/2000/svg" xmlns:xlink="http://www.w3.org/1999/xlink">
    <!-- Generator: Sketch 52.2 (67145) - http://www.bohemiancoding.com/sketch -->
    <title>facebook</title>
    <desc>Created with Sketch.</desc>
    <g id="V1" stroke="none" stroke-width="1" fill="none" fill-rule="evenodd">
        <g id="shout-out-share" transform="translate(-823.000000, -360.000000)">
            <g id="header">
                <g id="facebook" transform="translate(823.000000, 360.000000)">
                    <circle id="Oval-4" fill="#FFFFFF" cx="32.5" cy="32.5" r="32.5"></circle>
                    <path d="M23.6067276,35.1735859 L27.7296692,35.1735859 L27.7296692,51.4193594 C27.7296692,51.740125 28.001187,52 28.3363234,52 L35.3269511,52 C35.6620875,52 35.9336053,51.740125 35.9336053,51.4193594 L35.9336053,35.2501563 L40.6733389,35.2501563 C40.9815145,35.2501563 41.2408375,35.0288125 41.2760261,34.7358203 L41.9958861,28.7549688 C42.0156475,28.5904375 41.9612117,28.425625 41.8461693,28.3021563 C41.7310534,28.1786172 41.5662768,28.1078828 41.3933458,28.1078828 L35.9338991,28.1078828 L35.9338991,24.35875 C35.9338991,23.2286172 36.5696445,22.6555 37.823798,22.6555 C38.0025325,22.6555 41.3933458,22.6555 41.3933458,22.6555 C41.7284822,22.6555 42,22.3954844 42,22.0748594 L42,16.5849297 C42,16.2641641 41.7284822,16.0042891 41.3933458,16.0042891 L36.4739227,16.0042891 C36.4392484,16.0026719 36.3621861,16 36.2486129,16 C35.3950509,16 32.4281168,16.1603828 30.0844395,18.2239844 C27.4876834,20.5108281 27.8486786,23.2488672 27.9349237,23.7236172 L27.9349237,28.1077422 L23.6066542,28.1077422 C23.2715178,28.1077422 23,28.3676172 23,28.6883828 L23,34.592875 C23.0000735,34.9135703 23.2715912,35.1735859 23.6067276,35.1735859 Z" id="Shape" fill="#385C8E" fill-rule="nonzero"></path>
                </g>
            </g>
        </g>
    </g>
</svg>