<?xml version="1.0" encoding="UTF-8"?>
<svg width="65px" height="65px" viewBox="0 0 65 65" version="1.1" xmlns="http://www.w3.org/2000/svg" xmlns:xlink="http://www.w3.org/1999/xlink">
    <!-- Generator: Sketch 52.2 (67145) - http://www.bohemiancoding.com/sketch -->
    <title>linkedIn</title>
    <desc>Created with Sketch.</desc>
    <g id="V1" stroke="none" stroke-width="1" fill="none" fill-rule="evenodd">
        <g id="shout-out-share" transform="translate(-736.000000, -360.000000)">
            <g id="header">
                <g id="linkedIn" transform="translate(736.000000, 360.000000)">
                    <circle id="Oval-4" fill="#FFFFFF" cx="32.5" cy="32.5" r="32.5"></circle>
                    <g id="linkedin" transform="translate(16.000000, 16.000000)" fill="#007AAA" fill-rule="nonzero">
                        <path d="M4.00065219,0 C6.17174151,0 8,1.82824925 8,3.99932759 C8,6.28463915 6.05744299,8.05580415 4.00065219,7.99865518 C1.88671213,8.05580415 0.00130437693,6.28463915 0.00130437693,3.99932759 C-0.0558448814,1.77110028 1.77247833,0 4.00065219,0" id="Shape"></path>
                        <path d="M5.83339941,32 L1.16666667,32 C0.52501652,32 0,31.4922954 0,30.8718031 L0,11.1281969 C0,10.5077046 0.466666667,10 1.10831681,10 L5.83333333,10 C6.47498348,10 7,10.5077046 7,11.1281969 L7,30.9282289 C7.00006608,31.4922954 6.47504956,32 5.83339941,32" id="Shape"></path>
                        <path d="M32.942307,17.2599801 C32.942307,13.189995 29.7664451,10 25.4935005,10 L24.280901,10 C21.9712189,10 19.7192298,11.0449726 18.5066304,12.75 C18.1024523,13.1349801 17.9291771,13.3000249 17.9291771,13.3000249 L17.9291771,11.1000498 C17.9291771,10.8800523 17.5826921,10.5500249 17.3517239,10.5500249 L11.5774532,10.5500249 C11.346485,10.5500249 11,10.7700224 11,11.0450349 L11,31.560005 C11,31.7800025 11.346485,32 11.5774532,32 L17.9291117,32 C18.1600799,32 18.5065649,31.7800025 18.5065649,31.560005 L18.5065649,19.6799526 C18.5065649,17.6449601 20.1233424,15.9399327 22.2598147,15.8849801 C23.3568974,15.8849801 24.3385286,16.2699601 25.0891916,16.9849676 C25.7820963,17.6449601 26.0708229,18.5799651 26.0708229,19.6249377 L26.0708229,31.4499128 C26.0708229,31.6699103 26.4173079,31.9999377 26.6482761,31.9999377 L32.4225468,31.9999377 C32.653515,31.9999377 33,31.6699103 33,31.4499128 L33,17.2599801 L32.942307,17.2599801 Z" id="Shape"></path>
                    </g>
                </g>
            </g>
        </g>
    </g>
</svg>