<?xml version="1.0" encoding="UTF-8"?>
<svg width="255px" height="78px" viewBox="0 0 255 78" version="1.1" xmlns="http://www.w3.org/2000/svg" xmlns:xlink="http://www.w3.org/1999/xlink">
    <!-- Generator: Sketch 52.1 (67048) - http://www.bohemiancoding.com/sketch -->
    <title>logo 2</title>
    <desc>Created with Sketch.</desc>
    <g id="V1" stroke="none" stroke-width="1" fill="none" fill-rule="evenodd">
        <g id="shout-out-Home-" transform="translate(-52.000000, -39.000000)" fill="#FFFFFF">
            <g id="logo-2" transform="translate(52.000000, 39.000000)">
                <path d="M4.93738819,46 C3.97137263,46 3.03816789,45.8615755 2.13774597,45.5847222 C1.23732406,45.307869 0.524749195,44.940743 0,44.4833333 L0.805008945,42.6597222 C1.31783202,43.0689835 1.94692531,43.403008 2.69230769,43.6618056 C3.43769007,43.9206031 4.18604275,44.05 4.93738819,44.05 C5.8676254,44.05 6.56231136,43.8995385 7.02146691,43.5986111 C7.48062245,43.2976837 7.71019678,42.9004654 7.71019678,42.4069444 C7.71019678,42.0458315 7.58199293,41.7479178 7.3255814,41.5131944 C7.06916986,41.278471 6.74418801,41.0949081 6.35062612,40.9625 C5.95706422,40.8300919 5.42039696,40.6796305 4.74060823,40.5111111 C3.78651878,40.2824063 3.01431422,40.0537048 2.42397138,39.825 C1.83362853,39.5962952 1.32677612,39.2381969 0.903398927,38.7506944 C0.480021735,38.263192 0.268336315,37.6041708 0.268336315,36.7736111 C0.268336315,36.0754595 0.456169857,35.4405121 0.831842576,34.86875 C1.2075153,34.2969879 1.77399741,33.8425943 2.5313059,33.5055556 C3.2886144,33.1685168 4.21585617,33 5.31305903,33 C6.07633059,33 6.82766476,33.0962953 7.56708408,33.2888889 C8.3065034,33.4814824 8.94454114,33.7583315 9.48121646,34.1194444 L8.74776386,35.9430556 C8.19916243,35.6180539 7.62671735,35.3712971 7.03041145,35.2027778 C6.43410555,35.0342584 5.8556975,34.95 5.29516995,34.95 C4.37685886,34.95 3.69409884,35.1064799 3.24686941,35.4194444 C2.79963998,35.732409 2.57602862,36.1476826 2.57602862,36.6652778 C2.57602862,37.0263907 2.70423247,37.3212952 2.96064401,37.55 C3.21705555,37.7787048 3.54203739,37.9592586 3.93559928,38.0916667 C4.32916118,38.2240747 4.86582844,38.3745362 5.54561717,38.5430556 C6.47585438,38.7597233 7.23911449,38.9854155 7.83542039,39.2201389 C8.4317263,39.4548623 8.9415602,39.8129606 9.36493739,40.2944444 C9.78831458,40.7759283 10,41.4259218 10,42.2444444 C10,42.9425961 9.81216646,43.5745342 9.43649374,44.1402778 C9.06082102,44.7060213 8.49135742,45.1574057 7.72808587,45.4944444 C6.96481431,45.8314832 6.03459106,46 4.93738819,46 Z" id="S"></path>
                <path d="M20.4885932,33.9002695 C22.1527333,33.9002695 23.4873207,34.3773537 24.4923954,35.3315364 C25.4974702,36.2857191 26,37.7007992 26,39.5768194 L26,47 L22.9106464,47 L22.9106464,39.9649596 C22.9106464,38.8328784 22.638786,37.9797872 22.095057,37.4056604 C21.5513281,36.8315335 20.7769379,36.5444744 19.7718631,36.5444744 C18.6349753,36.5444744 17.7370122,36.8800506 17.0779468,37.5512129 C16.4188814,38.2223753 16.0893536,39.1886729 16.0893536,40.4501348 L16.0893536,47 L13,47 L13,29 L16.0893536,29 L16.0893536,35.5498652 C16.6001293,35.0161698 17.2303511,34.6078181 17.980038,34.3247978 C18.7297249,34.0417776 19.5659016,33.9002695 20.4885932,33.9002695 Z" id="h"></path>
                <path d="M43.5,53 C40.7592456,53 38.2870481,52.3798804 36.0833333,51.1396226 C33.8796186,49.8993649 32.1481544,48.1757972 30.8888889,45.9688679 C29.6296233,43.7619387 29,41.2723409 29,38.5 C29,35.7276591 29.6296233,33.2380613 30.8888889,31.0311321 C32.1481544,28.8242028 33.8796186,27.1006351 36.0833333,25.8603774 C38.2870481,24.6201196 40.7592456,24 43.5,24 C46.2407544,24 48.7129519,24.6201196 50.9166667,25.8603774 C53.1203814,27.1006351 54.8518456,28.8242028 56.1111111,31.0311321 C57.3703767,33.2380613 58,35.7276591 58,38.5 C58,41.2723409 57.3703767,43.7619387 56.1111111,45.9688679 C54.8518456,48.1757972 53.1203814,49.8993649 50.9166667,51.1396226 C48.7129519,52.3798804 46.2407544,53 43.5,53 Z M43.5,50.5377358 C45.7222333,50.5377358 47.7129542,50.0270491 49.4722222,49.0056604 C51.2314903,47.9842716 52.6203653,46.5616443 53.6388889,44.7377358 C54.6574125,42.9138274 55.1666667,40.8346029 55.1666667,38.5 C55.1666667,36.1653971 54.6574125,34.0861726 53.6388889,32.2622642 C52.6203653,30.4383557 51.2314903,29.0157284 49.4722222,27.9943396 C47.7129542,26.9729509 45.7222333,26.4622642 43.5,26.4622642 C41.2777667,26.4622642 39.2870458,26.9729509 37.5277778,27.9943396 C35.7685097,29.0157284 34.3796347,30.4383557 33.3611111,32.2622642 C32.3425875,34.0861726 31.8333333,36.1653971 31.8333333,38.5 C31.8333333,40.8346029 32.3425875,42.9138274 33.3611111,44.7377358 C34.3796347,46.5616443 35.7685097,47.9842716 37.5277778,49.0056604 C39.2870458,50.0270491 41.2777667,50.5377358 43.5,50.5377358 Z" id="o"></path>
                <path d="M94,22 L94,58.7186312 L90.5788337,58.7186312 L90.5788337,50.8403042 C89.3434063,53.4195313 87.514051,55.4242641 85.0907127,56.8545627 C82.6673745,58.2848614 79.8164311,59 76.537797,59 C71.6911205,59 67.8898626,57.6635115 65.1339093,54.9904943 C62.377956,52.3174771 61,48.4721417 61,43.4543726 L61,22 L64.5637149,22 L64.5637149,43.1730038 C64.5637149,47.2997671 65.6328187,50.4416876 67.7710583,52.5988593 C69.9092979,54.7560311 72.9265464,55.8346008 76.8228942,55.8346008 C81.0043406,55.8346008 84.3185623,54.5450066 86.7656587,51.9657795 C89.2127552,49.3865524 90.4362851,45.9163716 90.4362851,41.5551331 L90.4362851,22 L94,22 Z" id="u"></path>
                <path d="M128,59.99375 C126.93526,60.9687549 125.604356,61.7135391 124.007246,62.228125 C122.410137,62.7427109 120.743004,63 119.005797,63 C115.19515,63 112.25315,61.9843852 110.17971,59.953125 C108.10627,57.9218648 107.069565,55.0916848 107.069565,51.4625 L107.069565,23.75625 L99,23.75625 L99,20.2625 L107.069565,20.2625 L107.069565,11 L111.272464,11 L111.272464,20.2625 L125.226087,20.2625 L125.226087,23.75625 L111.272464,23.75625 L111.272464,51.05625 C111.272464,53.8187638 111.95893,55.9177012 113.331884,57.353125 C114.704838,58.7885488 116.736218,59.50625 119.426087,59.50625 C122.171994,59.50625 124.441537,58.7208412 126.234783,57.15 L128,59.99375 Z" id="t"></path>
                <path d="M169.5,78 C162.222824,78 155.658714,76.3320922 149.807471,72.9962264 C143.956229,69.6603607 139.358893,65.024558 136.015326,59.0886792 C132.671759,53.1528005 131,46.4566411 131,39 C131,31.5433589 132.671759,24.8471995 136.015326,18.9113208 C139.358893,12.975442 143.956229,8.33963932 149.807471,5.00377358 C155.658714,1.66790785 162.222824,0 169.5,0 C176.777176,0 183.341286,1.66790785 189.192529,5.00377358 C195.043771,8.33963932 199.641107,12.975442 202.984674,18.9113208 C206.328241,24.8471995 208,31.5433589 208,39 C208,46.4566411 206.328241,53.1528005 202.984674,59.0886792 C199.641107,65.024558 195.043771,69.6603607 189.192529,72.9962264 C183.341286,76.3320922 176.777176,78 169.5,78 Z M169.5,71.3773585 C175.400413,71.3773585 180.68612,70.0037873 185.35728,67.2566038 C190.02844,64.5094202 193.716142,60.6830434 196.420498,55.7773585 C199.124854,50.8716736 200.477011,45.2792767 200.477011,39 C200.477011,32.7207233 199.124854,27.1283264 196.420498,22.2226415 C193.716142,17.3169566 190.02844,13.4905798 185.35728,10.7433962 C180.68612,7.99621268 175.400413,6.62264151 169.5,6.62264151 C163.599587,6.62264151 158.31388,7.99621268 153.64272,10.7433962 C148.97156,13.4905798 145.283858,17.3169566 142.579502,22.2226415 C139.875146,27.1283264 138.522989,32.7207233 138.522989,39 C138.522989,45.2792767 139.875146,50.8716736 142.579502,55.7773585 C145.283858,60.6830434 148.97156,64.5094202 153.64272,67.2566038 C158.31388,70.0037873 163.599587,71.3773585 169.5,71.3773585 Z" id="o"></path>
                <path d="M229,31 L229,50.8479087 L227.237581,50.8479087 L227.237581,46.5893536 C226.601149,47.9835304 225.658754,49.0671698 224.410367,49.8403042 C223.161981,50.6134386 221.693313,51 220.00432,51 C217.507547,51 215.549323,50.2775738 214.12959,48.8326996 C212.709856,47.3878255 212,45.3092658 212,42.5969582 L212,31 L213.835853,31 L213.835853,42.4448669 C213.835853,44.6755498 214.386604,46.3738852 215.488121,47.539924 C216.589638,48.7059627 218.143978,49.2889734 220.151188,49.2889734 C222.305266,49.2889734 224.012593,48.5918954 225.273218,47.1977186 C226.533844,45.8035418 227.164147,43.9277684 227.164147,41.5703422 L227.164147,31 L229,31 Z" id="u"></path>
                <path d="M242,48.3444613 C241.738094,48.5629753 241.419645,48.7268583 241.044643,48.8361153 C240.669641,48.9453723 240.273812,49 239.857143,49 C238.809519,49 238.000003,48.7207919 237.428571,48.1623672 C236.85714,47.6039426 236.571429,46.7905971 236.571429,45.7223065 L236.571429,41.0424886 L235,41.0424886 L235,39.2215478 L236.571429,39.2215478 L236.571429,37 L238.803571,37 L238.803571,39.2215478 L241.357143,39.2215478 L241.357143,41.0424886 L238.803571,41.0424886 L238.803571,45.6676783 C238.803571,46.1411253 238.916666,46.5022749 239.142857,46.7511381 C239.369049,47.0000012 239.696426,47.124431 240.125,47.124431 C240.625003,47.124431 241.041665,46.9908966 241.375,46.723824 L242,48.3444613 Z" id="t"></path>
                <path d="M251.480519,49 C250.796533,49 250.136367,48.8859416 249.5,48.6578212 C248.863633,48.4297009 248.363638,48.13408 248,47.7709497 L248.480519,46.6815642 C248.826842,47.0167615 249.27056,47.2891051 249.811688,47.4986034 C250.352817,47.7081016 250.909088,47.8128492 251.480519,47.8128492 C252.23377,47.8128492 252.796535,47.6755135 253.168831,47.400838 C253.541127,47.1261625 253.727273,46.7607099 253.727273,46.3044693 C253.727273,45.9692721 253.625542,45.6969284 253.422078,45.4874302 C253.218614,45.2779319 252.967534,45.117319 252.668831,45.0055866 C252.370128,44.8938542 251.948055,44.7681571 251.402597,44.6284916 C250.718611,44.451582 250.166669,44.274675 249.746753,44.0977654 C249.326838,43.9208557 248.967534,43.6485121 248.668831,43.2807263 C248.370128,42.9129404 248.220779,42.4171353 248.220779,41.7932961 C248.220779,41.2718782 248.348484,40.8016781 248.603896,40.3826816 C248.859309,39.9636851 249.246751,39.6284929 249.766234,39.377095 C250.285717,39.1256971 250.930732,39 251.701299,39 C252.238098,39 252.766231,39.0744872 253.285714,39.2234637 C253.805197,39.3724402 254.25108,39.5865908 254.623377,39.8659218 L254.194805,40.9832402 C253.813851,40.7225313 253.406929,40.5246748 252.974026,40.3896648 C252.541123,40.2546548 252.116885,40.1871508 251.701299,40.1871508 C250.965364,40.1871508 250.413422,40.3314697 250.045455,40.6201117 C249.677487,40.9087538 249.493506,41.2811895 249.493506,41.7374302 C249.493506,42.0726274 249.597402,42.344971 249.805195,42.5544693 C250.012988,42.7639675 250.270561,42.9269082 250.577922,43.0432961 C250.885283,43.159684 251.303028,43.2830534 251.831169,43.4134078 C252.515155,43.5903175 253.064933,43.7672244 253.480519,43.9441341 C253.896106,44.1210437 254.253245,44.3910596 254.551948,44.7541899 C254.850651,45.1173203 255,45.6061422 255,46.2206704 C255,46.7327772 254.870131,47.2006497 254.61039,47.6243017 C254.350648,48.0479537 253.956713,48.3831459 253.428571,48.6298883 C252.90043,48.8766307 252.251086,49 251.480519,49 Z" id="S"></path>
                <g id="megaphone" transform="translate(169.000000, 38.000000) rotate(-31.000000) translate(-169.000000, -38.000000) translate(146.000000, 21.000000)">
                    <path d="M34.034644,9.71496393 L34.034644,1.3890066 C34.034644,0.955264772 33.7998763,0.568668792 33.4148574,0.370656217 C33.0392292,0.172643642 32.5790846,0.200931153 32.2222378,0.446089579 C23.9771986,6.16959592 19.2442831,6.90507119 16.0420526,6.90507119 L6.88611488,6.90507119 C3.26130263,6.90507119 0.312621156,9.86583065 0.312621156,13.5054904 L0.312621156,15.9570746 C0.312621156,19.5967343 3.26130263,22.5574938 6.88611488,22.5574938 L9.4790111,22.5574938 L8.14677561,30.5926287 C8.32519901,31.0357997 8.31804322,33.3310075 8.76879707,33.3310075 C8.91904836,33.3310075 5.55283944,33.1517409 11.387626,33.7511453 C11.9792404,33.5059868 11.5395276,30.9167529 11.30476,30.3227152 L12.228995,22.43891 L16.0326619,22.5574938 C27.1888198,22.5574938 31.7527026,28.4884419 31.9592981,28.7618878 C32.184675,29.0636213 32.5227404,29.2333463 32.8795872,29.2333463 C33.0016664,29.2333463 33.1237455,29.214488 33.236434,29.1767713 C33.7059693,29.0164754 34.0252532,28.5827336 34.0252532,28.0829876 L34.0252532,19.7664594 C36.3071946,19.2384259 38.0069123,17.1922959 38.0069123,14.7407117 C38.0256937,12.2891274 36.3165853,10.2335683 34.034644,9.71496393 Z M2.61334396,15.9570746 L2.61334396,13.5054904 C2.61334396,11.1387686 4.52904784,9.2152179 6.88611488,9.2152179 L10.9053368,9.2152179 L10.9053368,20.2473471 L6.88611488,20.2473471 C4.52904784,20.2473471 2.61334396,18.3237964 2.61334396,15.9570746 Z M31.7339212,25.3013823 C29.1796493,23.1892482 24.1650127,20.2473471 16.0326619,20.2473471 L13.1966689,20.2473471 L13.1966689,9.2152179 L16.0326619,9.2152179 C19.3194087,9.2152179 24.0335428,8.53631765 31.7339212,3.55771576 L31.7339212,25.3013823 Z M34.034644,17.3337335 L34.034644,12.1382607 C35.0300587,12.5814317 35.7155802,13.5809237 35.7155802,14.7407117 C35.7249709,15.8910704 35.0300587,16.8905625 34.034644,17.3337335 Z" id="Shape" fill-rule="nonzero"></path>
                    <path d="M44.766511,13.8077317 L40.1233309,13.8077317 C39.4641738,13.8077317 38.9310321,14.2380124 38.9310321,14.7699958 C38.9310321,15.3019793 39.4641738,15.73226 40.1233309,15.73226 L44.766511,15.73226 C45.4256681,15.73226 45.9588099,15.3019793 45.9588099,14.7699958 C45.9588099,14.2301891 45.4256681,13.8077317 44.766511,13.8077317 Z" id="Path"></path>
                    <path d="M38.4122445,10.7646205 C38.6006349,11.1976474 39.056738,11.4682893 39.542587,11.4682893 C39.6913163,11.4682893 39.8400456,11.4412251 39.9887749,11.3961181 L44.5894673,9.75422417 C45.2141303,9.52868928 45.5215042,8.8881702 45.273622,8.31982228 C45.0257399,7.75147436 44.3217546,7.4718111 43.6970916,7.69734599 L39.0963992,9.33923997 C38.4816515,9.55575347 38.1742776,10.1962725 38.4122445,10.7646205 Z" id="Path"></path>
                    <path d="M44.6934482,19.1309061 L40.0962268,17.4890121 C39.4720351,17.2634772 38.7685809,17.5431405 38.5208858,18.1114884 C38.2731907,18.6798363 38.5803326,19.3203554 39.2045243,19.5458903 L43.8017458,21.1877842 C43.9503629,21.2419126 44.0989799,21.2599554 44.247597,21.2599554 C44.7330795,21.2599554 45.1888385,20.9893135 45.3770868,20.5562866 C45.6247819,19.99696 45.3176399,19.356441 44.6934482,19.1309061 Z" id="Path"></path>
                </g>
            </g>
        </g>
    </g>
</svg>