<?xml version="1.0" encoding="UTF-8"?>
<svg width="65px" height="65px" viewBox="0 0 65 65" version="1.1" xmlns="http://www.w3.org/2000/svg" xmlns:xlink="http://www.w3.org/1999/xlink">
    <!-- Generator: Sketch 52.2 (67145) - http://www.bohemiancoding.com/sketch -->
    <title>slack</title>
    <desc>Created with Sketch.</desc>
    <g id="V1" stroke="none" stroke-width="1" fill="none" fill-rule="evenodd">
        <g id="shout-out-share" transform="translate(-558.000000, -360.000000)">
            <g id="header">
                <g id="slack" transform="translate(558.000000, 360.000000)">
                    <circle id="Oval-4" fill="#FFFFFF" cx="32.5" cy="32.5" r="32.5"></circle>
                    <g transform="translate(12.000000, 12.000000)" fill-rule="nonzero" id="Shape">
                        <path d="M25.8145872,2.43732117 C25.2191576,0.586441426 23.2490939,-0.428078221 21.4137983,0.173210253 C19.5785027,0.774498727 18.5763186,2.76394701 19.1717483,4.61730119 L28.2012066,32.6749555 C28.8211396,34.4045878 30.6711371,35.377042 32.4500752,34.8623589 C34.3025231,34.3229314 35.4345746,32.3359575 34.8415952,30.4974499 C34.8195423,30.4256912 25.8145872,2.43732117 25.8145872,2.43732117 Z" fill="#FFC107"></path>
                        <path d="M11.8149914,7.43857984 C11.2171377,5.58515645 9.24716081,4.57059892 7.4143962,5.17438438 C5.58163159,5.77816984 4.57459114,7.76521787 5.17244484,9.61864126 L14.2015058,37.6748687 C14.8214115,39.4045656 16.6713276,40.3770561 18.4501874,39.8623537 C20.3025538,39.3229061 21.4345554,37.335858 20.8416022,35.4972818 C20.8195502,35.427995 11.8149914,7.43857984 11.8149914,7.43857984 Z" fill="#4CAF50"></path>
                        <path d="M37.5624667,25.8135438 C39.4158088,25.2182053 40.4278474,23.2484433 39.8265629,21.4134287 C39.2252783,19.5784142 37.235843,18.5763835 35.3825009,19.171722 L7.32502932,28.2022477 C5.59540831,28.8220857 4.62296045,30.6718 5.13764023,32.4504656 C5.67706424,34.3026299 7.66402514,35.434508 9.50252072,34.8416195 C9.57427896,34.8171199 37.5624667,25.8135438 37.5624667,25.8135438 Z" fill="#EC407A"></path>
                        <path d="M13.2080201,34 C15.0576441,33.3984962 17.4411028,32.6240602 20,31.7919799 C19.3984962,29.9423559 18.6240602,27.5588972 17.7919799,25 L11,27.2080201 L13.2080201,34 Z" fill="#472A49"></path>
                        <path d="M27.2080201,29 C29.7769424,28.1656459 32.1629073,27.3914254 34,26.7925947 C33.3984962,24.9434855 32.6240602,22.5581849 31.7919799,20 L25,22.2074053 L27.2080201,29 Z" fill="#CC2027"></path>
                        <path d="M32.5623711,11.8149677 C34.4157859,11.2195048 35.4278642,9.24933119 34.8265561,7.41393312 C34.2252479,5.57853505 32.2357346,4.57629498 30.3823198,5.17175791 L2.32622276,14.2017204 C0.594059417,14.8216879 -0.378426573,16.6717888 0.13874791,18.4508262 C0.678193065,20.3033775 2.66523187,21.4330417 4.50379953,20.8424797 C4.57308606,20.8204256 32.5623711,11.8149677 32.5623711,11.8149677 Z" fill="#2196F3"></path>
                        <path d="M8.20551378,20 C10.0551378,19.3984962 12.4411028,18.6240602 15,17.7919799 C14.1654135,15.2255639 13.3909774,12.839599 12.7919799,11 L6,13.2080201 L8.20551378,20 Z" fill="#1A937D"></path>
                        <path d="M22.2074053,15 C24.7756125,14.1656459 27.1609131,13.3914254 29,12.7925947 C28.1656459,10.2243875 27.3889198,7.83908686 26.7925947,6 L20,8.20740535 L22.2074053,15 Z" fill="#65863A"></path>
                    </g>
                </g>
            </g>
        </g>
    </g>
</svg>