<?xml version="1.0" encoding="UTF-8"?>
<svg width="64px" height="64px" viewBox="0 0 64 64" version="1.1" xmlns="http://www.w3.org/2000/svg" xmlns:xlink="http://www.w3.org/1999/xlink">
    <!-- Generator: Sketch 52.1 (67048) - http://www.bohemiancoding.com/sketch -->
    <title>slack</title>
    <desc>Created with Sketch.</desc>
    <g id="V1" stroke="none" stroke-width="1" fill="none" fill-rule="evenodd">
        <g id="shout-out-Home-" transform="translate(-288.000000, -956.000000)" fill-rule="nonzero">
            <g id="Slack-block" transform="translate(235.000000, 916.000000)">
                <g id="slack" transform="translate(53.000000, 40.000000)">
                    <path d="M41.0737043,3.89971388 C40.106131,0.938306282 36.9047776,-0.684925154 33.9224223,0.277136404 C30.940067,1.23919796 29.3115178,4.42231522 30.279091,7.38768191 L44.9519607,52.2799289 C45.9593518,55.0473405 48.9655978,56.6032672 51.8563722,55.7797742 C54.8666,54.9166902 56.7061836,51.737532 55.7425922,48.7959199 C55.7067562,48.681106 41.0737043,3.89971388 41.0737043,3.89971388 Z" id="Shape" fill="#FFC107"></path>
                    <path d="M19.0743611,11.9017277 C18.1028488,8.93625032 14.9016363,7.31295828 11.9233938,8.27901501 C8.94515133,9.24507174 7.30871061,12.4243486 8.28022286,15.389826 L22.9524469,60.2797899 C23.9597936,63.0473049 26.9659074,64.6032897 29.8565545,63.779766 C32.8666499,62.9166497 34.7061526,59.7373729 33.7426035,56.7956509 C33.7067691,56.684792 19.0743611,11.9017277 19.0743611,11.9017277 Z" id="Shape" fill="#4CAF50"></path>
                    <path d="M60.0999467,41.0720086 C63.0652941,40.1045836 64.6845559,36.9037204 63.7225006,33.9218217 C62.7604453,30.939923 59.5773488,29.3116232 56.6120014,30.2790483 L11.7200469,44.9536524 C8.9526533,45.9608892 7.39673672,48.966675 8.22022437,51.8570066 C9.08330278,54.8667735 12.2624402,56.7060755 15.2040332,55.7426316 C15.3188463,55.7028199 60.0999467,41.0720086 60.0999467,41.0720086 Z" id="Shape" fill="#EC407A"></path>
                    <path d="M20.4346979,54 C23.3118908,53.0643275 27.0194932,51.8596491 31,50.5653021 C30.0643275,47.6881092 28.8596491,43.9805068 27.5653021,40 L17,43.4346979 L20.4346979,54 Z" id="Shape" fill="#472A49"></path>
                    <path d="M43.4346979,46 C47.4307992,44.7021158 51.1423002,43.4977728 54,42.5662584 C53.0643275,39.6898664 51.8596491,35.9793987 50.5653021,32 L40,35.4337416 L43.4346979,46 Z" id="Shape" fill="#CC2027"></path>
                    <path d="M52.0997938,19.0743226 C55.0652575,18.1066953 56.6845827,14.9051632 55.7224897,11.9226413 C54.7603967,8.94011946 51.5771754,7.31147935 48.6117118,8.2791066 L3.72195641,22.9527956 C0.950495067,23.9602429 -0.605482517,26.9666568 0.221996656,29.8575925 C1.0851089,32.8679884 4.26437099,34.7036928 7.20607925,33.7440296 C7.3169377,33.7081915 52.0997938,19.0743226 52.0997938,19.0743226 Z" id="Shape" fill="#2196F3"></path>
                    <path d="M13.4307992,31 C16.3079922,30.0643275 20.0194932,28.8596491 24,27.5653021 C22.7017544,23.5730994 21.497076,19.8615984 20.5653021,17 L10,20.4346979 L13.4307992,31 Z" id="Shape" fill="#1A937D"></path>
                    <path d="M35.4337416,24 C39.4287305,22.7021158 43.1391982,21.4977728 46,20.5662584 C44.7021158,16.5712695 43.4938753,12.8608018 42.5662584,10 L32,13.4337416 L35.4337416,24 Z" id="Shape" fill="#65863A"></path>
                </g>
            </g>
        </g>
    </g>
</svg>