<?xml version="1.0" encoding="UTF-8"?>
<svg width="65px" height="65px" viewBox="0 0 65 65" version="1.1" xmlns="http://www.w3.org/2000/svg" xmlns:xlink="http://www.w3.org/1999/xlink">
    <!-- Generator: Sketch 52.2 (67145) - http://www.bohemiancoding.com/sketch -->
    <title>twitter</title>
    <desc>Created with Sketch.</desc>
    <g id="V1" stroke="none" stroke-width="1" fill="none" fill-rule="evenodd">
        <g id="shout-out-share" transform="translate(-647.000000, -360.000000)">
            <g id="header">
                <g id="twitter" transform="translate(647.000000, 360.000000)">
                    <circle id="Oval-4" fill="#FFFFFF" cx="32.5" cy="32.5" r="32.5"></circle>
                    <path d="M50.4115396,23.6062613 C49.5894575,23.9734387 48.7360726,24.2631099 47.8604058,24.4728217 C48.8252901,23.5492902 49.5507575,22.394149 49.9600394,21.1048031 C50.0768612,20.7367171 49.6799379,20.4184241 49.3499504,20.6155059 C48.131757,21.3433185 46.8195649,21.8893142 45.4497287,22.2385007 C45.3702539,22.2587631 45.2882531,22.2690307 45.2059818,22.2690307 C44.9564614,22.2690307 44.7138872,22.1757144 44.5230934,22.0063458 C43.0656635,20.7125476 41.1911936,20 39.2450971,20 C38.4029884,20 37.5527608,20.1322057 36.7179591,20.3929824 C34.1314631,21.201027 32.1357512,23.3500277 31.5096048,26.0014098 C31.2746984,26.9959053 31.2111005,27.9913094 31.3204348,28.9599089 C31.332974,29.0712161 31.2807425,29.1489039 31.2485376,29.18534 C31.191976,29.2492167 31.1117795,29.2858345 31.0285158,29.2858345 C31.0192242,29.2858345 31.009662,29.2853801 31.0001899,29.2844715 C25.338441,28.7546494 20.2329259,26.0072251 16.624082,21.5483963 C16.4400539,21.3209662 16.0871531,21.3488611 15.9404719,21.602278 C15.2337682,22.8234767 14.8602995,24.2202226 14.8602995,25.6415015 C14.8602995,27.8196692 15.7291103,29.8723551 17.2382304,31.3687777 C16.6036043,31.2172182 15.9893656,30.9785212 15.4187885,30.6593195 C15.1427465,30.5048524 14.8031065,30.703388 14.7992275,31.0214085 C14.7597155,34.2572214 16.6405904,37.1364879 19.458204,38.433012 C19.401462,38.4343749 19.34472,38.435011 19.2878878,38.435011 C18.841259,38.435011 18.3890371,38.3915785 17.9439419,38.3058947 C17.6330788,38.2461068 17.3719214,38.5431379 17.4684459,38.8467112 C18.3829931,41.7226158 20.8413912,43.8424494 23.7833139,44.3237507 C21.3416948,45.9746404 18.4983714,46.8454714 15.5390382,46.8454714 L14.6164624,46.8449262 C14.3322112,46.8449262 14.091802,47.0315588 14.0193635,47.3088726 C13.9480076,47.5820068 14.0794433,47.8701333 14.3218371,48.0121522 C17.6565334,49.9668878 21.4602306,51 25.323376,51 C28.7048912,51 31.8680084,50.3240702 34.7249535,48.9911101 C37.3440153,47.7690937 39.6584385,46.0222526 41.6039036,43.7991078 C43.4162189,41.7281584 44.8334152,39.3374622 45.8159806,36.6935308 C46.7526292,34.173264 47.2477007,31.4840829 47.2477007,28.9166581 L47.2477007,28.7943565 C47.2476105,28.3821111 47.432721,27.994217 47.7556722,27.7301692 C48.9811726,26.7279503 50.0483549,25.5481852 50.9274496,24.2236754 C51.1595594,23.8739437 50.793488,23.4356206 50.4115396,23.6062613 Z" id="Shape" fill="#76A9EA" fill-rule="nonzero"></path>
                </g>
            </g>
        </g>
    </g>
</svg>