<?xml version="1.0" encoding="UTF-8"?>
<svg width="443px" height="443px" viewBox="0 0 443 443" version="1.1" xmlns="http://www.w3.org/2000/svg" xmlns:xlink="http://www.w3.org/1999/xlink">
    <!-- Generator: Sketch 52.2 (67145) - http://www.bohemiancoding.com/sketch -->
    <title>small logo copy</title>
    <desc>Created with Sketch.</desc>
    <g id="Page-1" stroke="none" stroke-width="1" fill="none" fill-rule="evenodd">
        <g id="small-logo-copy">
            <circle id="Oval" fill="#E95416" cx="221.5" cy="221.5" r="221.5"></circle>
            <g id="logo-2" transform="translate(31.000000, 170.000000)" fill="#FFFFFF">
                <path d="M7.2802273,68.4102564 C5.85582788,68.4102564 4.47980834,68.2043943 3.1521274,67.7926638 C1.82444646,67.3809334 0.773747833,66.8349512 0,66.1547009 L1.18699358,63.4426638 C1.94315624,64.0513088 2.87076046,64.5480631 3.96983409,64.9329416 C5.06890771,65.3178201 6.17236108,65.5102564 7.2802273,65.5102564 C8.65187118,65.5102564 9.67619244,65.2864932 10.3532218,64.8389601 C11.0302511,64.391427 11.3687607,63.8006922 11.3687607,63.0667379 C11.3687607,62.5296982 11.1797229,62.086647 10.8016416,61.7375712 C10.4235603,61.3884954 9.94437135,61.1155043 9.36406047,60.9185897 C8.7837496,60.7216752 7.99242846,60.497912 6.99007331,60.2472934 C5.58325907,59.9071683 4.44463587,59.5670482 3.57416956,59.2269231 C2.70370325,58.8867979 1.95634439,58.3542415 1.33207057,57.6292379 C0.707796755,56.9042343 0.395664527,55.9241515 0.395664527,54.6889601 C0.395664527,53.6506833 0.672626926,52.7064026 1.22656003,51.8560897 C1.78049314,51.0057769 2.61577657,50.330012 3.73243537,49.8287749 C4.84909418,49.3275379 6.21632126,49.0769231 7.83415763,49.0769231 C8.95960903,49.0769231 10.0674586,49.2201315 11.1577397,49.5065527 C12.2480207,49.7929739 13.1888136,50.2046982 13.9801466,50.7417379 L12.8986636,53.4537749 C12.0897454,52.9704392 11.2456695,52.6034675 10.3664106,52.352849 C9.48715171,52.1022305 8.63428337,51.9769231 7.80778,51.9769231 C6.45372129,51.9769231 5.44698495,52.2096368 4.78754078,52.6750712 C4.1280966,53.1405057 3.79837946,53.7580921 3.79837946,54.527849 C3.79837946,55.0648887 3.98741729,55.5034646 4.36549861,55.8435897 C4.74357994,56.1837149 5.22276885,56.4522307 5.80307973,56.6491453 C6.3833906,56.8460599 7.17471174,57.0698231 8.17706689,57.3204416 C9.54871078,57.6426654 10.6741453,57.9783102 11.5534042,58.327386 C12.4326631,58.6764619 13.1844182,59.2090183 13.808692,59.9250712 C14.4329658,60.6411242 14.745098,61.6077812 14.745098,62.8250712 C14.745098,63.863348 14.4681356,64.8031534 13.9142025,65.6445157 C13.3602694,66.4858779 12.5205898,67.1571675 11.3951384,67.6584046 C10.269687,68.1596416 8.89806367,68.4102564 7.2802273,68.4102564 Z" id="S"></path>
                <path d="M30.2106315,50.4157855 C32.6644224,50.4157855 34.6322846,51.1252953 36.1142772,52.5443362 C37.5962697,53.9633771 38.3372549,56.0678553 38.3372549,58.857834 L38.3372549,69.8974359 L33.7819727,69.8974359 L33.7819727,59.4350681 C33.7819727,57.7514602 33.3811119,56.4827605 32.5793782,55.6289308 C31.7776445,54.7751011 30.6357986,54.3481927 29.153806,54.3481927 C27.4774538,54.3481927 26.1533983,54.8472547 25.1815999,55.8453936 C24.2098015,56.8435325 23.7239096,58.2805905 23.7239096,60.1566107 L23.7239096,69.8974359 L19.1686275,69.8974359 L19.1686275,43.1282051 L23.7239096,43.1282051 L23.7239096,52.8690303 C24.4770534,52.0753295 25.4063217,51.4680372 26.5117423,51.0471353 C27.617163,50.6262333 28.8501137,50.4157855 30.2106315,50.4157855 Z" id="h"></path>
                <path d="M64.1411765,78.8205128 C60.0999072,78.8205128 56.4546277,77.8982837 53.2052288,76.0537978 C49.9558298,74.2093119 47.4027689,71.6460574 45.5459695,68.3639574 C43.6891701,65.0818575 42.7607843,61.3793788 42.7607843,57.2564103 C42.7607843,53.1334417 43.6891701,49.430963 45.5459695,46.1488631 C47.4027689,42.8667631 49.9558298,40.3035087 53.2052288,38.4590227 C56.4546277,36.6145368 60.0999072,35.6923077 64.1411765,35.6923077 C68.1824458,35.6923077 71.8277252,36.6145368 75.0771242,38.4590227 C78.3265231,40.3035087 80.879584,42.8667631 82.7363834,46.1488631 C84.5931828,49.430963 85.5215686,53.1334417 85.5215686,57.2564103 C85.5215686,61.3793788 84.5931828,65.0818575 82.7363834,68.3639574 C80.879584,71.6460574 78.3265231,74.2093119 75.0771242,76.0537978 C71.8277252,77.8982837 68.1824458,78.8205128 64.1411765,78.8205128 Z M64.1411765,75.1586841 C67.4178813,75.1586841 70.3532187,74.3992013 72.9472767,72.8802129 C75.5413347,71.3612245 77.5892445,69.2455224 79.0910675,66.5330431 C80.5928906,63.8205638 81.3437908,60.7283838 81.3437908,57.2564103 C81.3437908,53.7844368 80.5928906,50.6922567 79.0910675,47.9797775 C77.5892445,45.2672982 75.5413347,43.151596 72.9472767,41.6326076 C70.3532187,40.1136192 67.4178813,39.3541364 64.1411765,39.3541364 C60.8644716,39.3541364 57.9291342,40.1136192 55.3350763,41.6326076 C52.7410183,43.151596 50.6931085,45.2672982 49.1912854,47.9797775 C47.6894624,50.6922567 46.9385621,53.7844368 46.9385621,57.2564103 C46.9385621,60.7283838 47.6894624,63.8205638 49.1912854,66.5330431 C50.6931085,69.2455224 52.7410183,71.3612245 55.3350763,72.8802129 C57.9291342,74.3992013 60.8644716,75.1586841 64.1411765,75.1586841 Z" id="o"></path>
                <path d="M138.603922,32.7179487 L138.603922,87.3251438 L133.559378,87.3251438 L133.559378,75.6086575 C131.737729,79.4444311 129.040326,82.4258286 125.46709,84.5529395 C121.893854,86.6800503 117.69011,87.7435897 112.855732,87.7435897 C105.70926,87.7435897 100.104268,85.7559914 96.0405878,81.7807351 C91.9769076,77.8054788 89.945098,72.0867748 89.945098,64.6244516 L89.945098,32.7179487 L95.1998306,32.7179487 L95.1998306,64.2060057 C95.1998306,70.3432435 96.7762346,75.015843 99.9290899,78.2239446 C103.081945,81.4320462 107.530908,83.0360729 113.276111,83.0360729 C119.441694,83.0360729 124.328547,81.1182149 127.936814,77.2824413 C131.545082,73.4466676 133.349189,68.285886 133.349189,61.7999415 L133.349189,32.7179487 L138.603922,32.7179487 Z" id="u"></path>
                <path d="M188.737255,89.2214744 C187.167286,90.6714816 185.204854,91.7791094 182.849901,92.544391 C180.494947,93.3096726 178.036743,93.6923077 175.475215,93.6923077 C169.856378,93.6923077 165.518371,92.1819061 162.461063,89.1610577 C159.403755,86.1402093 157.875124,81.9312236 157.875124,76.5339744 L157.875124,35.3298077 L145.976471,35.3298077 L145.976471,30.1339744 L157.875124,30.1339744 L157.875124,16.3589744 L164.072339,16.3589744 L164.072339,30.1339744 L184.647093,30.1339744 L184.647093,35.3298077 L164.072339,35.3298077 L164.072339,75.9298077 C164.072339,80.0381616 165.08454,83.1596581 167.108974,85.294391 C169.133408,87.4291239 172.128699,88.4964744 176.094936,88.4964744 C180.143804,88.4964744 183.490266,87.3284305 186.134425,84.9923077 L188.737255,89.2214744 Z" id="t"></path>
                <path d="M249.929412,116 C239.199145,116 229.5203,113.519522 220.892585,108.558491 C212.264871,103.597459 205.486054,96.7031888 200.555931,87.8754717 C195.625809,79.0477546 193.160784,69.0893636 193.160784,58 C193.160784,46.9106364 195.625809,36.9522454 200.555931,28.1245283 C205.486054,19.2968112 212.264871,12.4025405 220.892585,7.44150943 C229.5203,2.48047834 239.199145,0 249.929412,0 C260.659679,0 270.338524,2.48047834 278.966238,7.44150943 C287.593953,12.4025405 294.37277,19.2968112 299.302892,28.1245283 C304.233015,36.9522454 306.698039,46.9106364 306.698039,58 C306.698039,69.0893636 304.233015,79.0477546 299.302892,87.8754717 C294.37277,96.7031888 287.593953,103.597459 278.966238,108.558491 C270.338524,113.519522 260.659679,116 249.929412,116 Z M249.929412,106.150943 C258.629628,106.150943 266.423455,104.108197 273.311126,100.022642 C280.198797,95.9370865 285.636351,90.2465774 289.62395,82.9509434 C293.611549,75.6553094 295.605319,67.3384115 295.605319,58 C295.605319,48.6615885 293.611549,40.3446906 289.62395,33.0490566 C285.636351,25.7534226 280.198797,20.0629135 273.311126,15.9773585 C266.423455,11.8918035 258.629628,9.8490566 249.929412,9.8490566 C241.229195,9.8490566 233.435369,11.8918035 226.547697,15.9773585 C219.660026,20.0629135 214.222473,25.7534226 210.234873,33.0490566 C206.247274,40.3446906 204.253505,48.6615885 204.253505,58 C204.253505,67.3384115 206.247274,75.6553094 210.234873,82.9509434 C214.222473,90.2465774 219.660026,95.9370865 226.547697,100.022642 C233.435369,104.108197 241.229195,106.150943 249.929412,106.150943 Z" id="o"></path>
                <path d="M337.662745,46.1025641 L337.662745,75.6199669 L335.064041,75.6199669 L335.064041,69.286731 C334.125615,71.3601222 332.736044,72.9716884 330.895286,74.121478 C329.054529,75.2712677 326.888963,75.8461538 324.398526,75.8461538 C320.71701,75.8461538 317.82959,74.7717764 315.736179,72.6229892 C313.642768,70.474202 312.596078,67.3830106 312.596078,63.3493224 L312.596078,46.1025641 L315.303062,46.1025641 L315.303062,63.1231354 C315.303062,66.4405613 316.115149,68.9662908 317.739347,70.7003997 C319.363545,72.4345087 321.655435,73.3015502 324.615085,73.3015502 C327.791295,73.3015502 330.308764,72.2648701 332.167569,70.191479 C334.026373,68.1180878 334.955762,65.3284761 334.955762,61.8225602 L334.955762,46.1025641 L337.662745,46.1025641 Z" id="u"></path>
                <path d="M356.831373,71.8968912 C356.445189,72.2218607 355.975633,72.4655842 355.422689,72.6280689 C354.869745,72.7905537 354.286091,72.8717949 353.671709,72.8717949 C352.126976,72.8717949 350.933338,72.4565623 350.090756,71.6260846 C349.248175,70.7956069 348.826891,69.5860163 348.826891,67.9972764 L348.826891,61.0375472 L346.509804,61.0375472 L346.509804,58.3294813 L348.826891,58.3294813 L348.826891,55.025641 L352.118207,55.025641 L352.118207,58.3294813 L355.883473,58.3294813 L355.883473,61.0375472 L352.118207,61.0375472 L352.118207,67.9160344 C352.118207,68.620135 352.284966,69.1572294 352.618487,69.5273336 C352.952009,69.8974377 353.434731,70.0824871 354.066667,70.0824871 C354.803925,70.0824871 355.418298,69.8838976 355.909804,69.4867126 L356.831373,71.8968912 Z" id="t"></path>
                <path d="M370.810491,72.8717949 C369.801947,72.8717949 368.828525,72.7021695 367.890196,72.3629136 C366.951867,72.0236578 366.214619,71.5840165 365.678431,71.0439765 L366.386962,69.4238648 C366.897617,69.9223632 367.551885,70.3273871 368.349784,70.6389486 C369.147682,70.9505101 369.96791,71.1062885 370.810491,71.1062885 C371.921167,71.1062885 372.750969,70.9020457 373.299924,70.4935539 C373.848878,70.0850622 374.123351,69.5415686 374.123351,68.8630569 C374.123351,68.3645585 373.973348,67.9595346 373.673338,67.6479731 C373.373328,67.3364116 373.003109,67.0975513 372.562669,66.9313852 C372.122229,66.7652191 371.499877,66.578285 370.695595,66.3705773 C369.68705,66.1074809 368.873206,65.8443885 368.254036,65.5812921 C367.634867,65.3181957 367.10507,64.9131718 366.664629,64.3662083 C366.224189,63.8192447 366.003972,63.0818936 366.003972,62.1541326 C366.003972,61.3786907 366.192274,60.6794187 366.568882,60.0562957 C366.94549,59.4331726 367.516777,58.9346817 368.28276,58.5608079 C369.048743,58.1869341 369.999825,58 371.136033,58 C371.927548,58 372.706286,58.1107758 373.472269,58.3323306 C374.238252,58.5538855 374.895711,58.8723658 375.444665,59.2877811 L374.812732,60.9494342 C374.251012,60.5617132 373.651001,60.2674651 373.012681,60.066681 C372.374362,59.8658969 371.748819,59.7655064 371.136033,59.7655064 C370.05089,59.7655064 369.237045,59.9801344 368.694474,60.4093969 C368.151903,60.8386595 367.880621,61.3925383 367.880621,62.07105 C367.880621,62.5695484 368.033816,62.9745723 368.340209,63.2861338 C368.646602,63.5976953 369.026396,63.8400173 369.479603,64.013107 C369.932809,64.1861967 370.548778,64.3696691 371.327527,64.5635296 C372.336072,64.826626 373.146725,65.0897184 373.759511,65.3528148 C374.372297,65.6159112 374.898903,66.0174733 375.339343,66.5575133 C375.779783,67.0975532 376,67.8245191 376,68.7384329 C376,69.5000277 375.808507,70.1958379 375.425516,70.8258845 C375.042524,71.4559311 374.461662,71.9544221 373.682913,72.3213723 C372.904164,72.6883225 371.9467,72.8717949 370.810491,72.8717949 Z" id="S"></path>
                <g id="megaphone" transform="translate(249.378678, 56.654442) rotate(-31.000000) translate(-249.378678, -56.654442) translate(215.378678, 31.154442)">
                    <path d="M50.1844162,14.4478951 L50.1844162,2.06570213 C50.1844162,1.42065017 49.838249,0.845712563 49.2705348,0.551232323 C48.7166674,0.256752083 48.0381797,0.298820689 47.5120056,0.663415272 C35.3546143,9.17529649 28.3758841,10.2690802 23.6541638,10.2690802 L10.1536439,10.2690802 C4.8088227,10.2690802 0.460962959,14.672261 0.460962959,20.0850882 L0.460962959,23.7310341 C0.460962959,29.1438613 4.8088227,33.5470421 10.1536439,33.5470421 L13.9768948,33.5470421 L12.0125005,45.4967299 C12.2755876,46.1558047 12.2650363,49.5691906 12.9296773,49.5691906 C13.1512242,49.5691906 8.18771619,49.3025891 16.7911662,50.1940109 C17.6635075,49.8294163 17.0151466,45.9787608 16.6689794,45.0953201 L18.031773,33.3706867 L23.6403171,33.5470421 C40.0901813,33.5470421 46.8196712,42.3674264 47.1242983,42.7740896 C47.4566188,43.2228214 47.9550996,43.475233 48.4812737,43.475233 C48.6612806,43.475233 48.8412875,43.4471873 49.0074478,43.3910958 C49.6997821,43.152707 50.1705695,42.5076551 50.1705695,41.764443 L50.1705695,29.396273 C53.5353145,28.6109923 56.0415648,25.5680298 56.0415648,21.922084 C56.0692582,18.2761382 53.5491611,15.2191528 50.1844162,14.4478951 Z M3.85340129,23.7310341 L3.85340129,20.0850882 C3.85340129,16.5653482 6.67812545,13.704683 10.1536439,13.704683 L16.080026,13.704683 L16.080026,30.1114393 L10.1536439,30.1114393 C6.67812545,30.1114393 3.85340129,27.2507741 3.85340129,23.7310341 Z M46.7919779,37.6276968 C43.025679,34.4865742 35.6315481,30.1114393 23.6403171,30.1114393 L19.4586176,30.1114393 L19.4586176,13.704683 L23.6403171,13.704683 C28.4866576,13.704683 35.4376945,12.6950365 46.7919779,5.2909619 L46.7919779,37.6276968 Z M50.1844162,25.7783729 L50.1844162,18.0517723 C51.652165,18.7108471 52.6629732,20.1972712 52.6629732,21.922084 C52.6768199,23.632874 51.652165,25.119298 50.1844162,25.7783729 Z" id="Shape" fill-rule="nonzero"></path>
                    <path d="M66.0086594,20.5345753 L59.1622448,20.5345753 C58.1903112,20.5345753 57.4041885,21.17448 57.4041885,21.9656348 C57.4041885,22.7567897 58.1903112,23.3966944 59.1622448,23.3966944 L66.0086594,23.3966944 C66.980593,23.3966944 67.7667157,22.7567897 67.7667157,21.9656348 C67.7667157,21.1628454 66.980593,20.5345753 66.0086594,20.5345753 Z" id="Path"></path>
                    <path d="M56.6392311,16.0089227 C56.9170146,16.6529116 57.5895431,17.0554046 58.3059322,17.0554046 C58.525235,17.0554046 58.7445378,17.0151553 58.9638406,16.9480731 L65.7476067,14.5062821 C66.6686784,14.1708712 67.1219042,13.2183044 66.7563995,12.373069 C66.3908949,11.5278337 65.3528617,11.1119242 64.43179,11.4473351 L57.6480239,13.8891261 C56.7415724,14.2111205 56.2883466,15.1636874 56.6392311,16.0089227 Z" id="Path"></path>
                    <path d="M65.9009276,28.4510911 L59.1222795,26.0093 C58.2019027,25.6738892 57.1646527,26.0897986 56.7994238,26.935034 C56.4341949,27.7802694 56.8870787,28.7328362 57.8074555,29.0682471 L64.5861036,31.5100381 C64.8052409,31.5905367 65.0243783,31.6173696 65.2435156,31.6173696 C65.9593642,31.6173696 66.6313854,31.2148766 66.9089593,30.5708877 C67.2741882,29.7390688 66.8213044,28.7865019 65.9009276,28.4510911 Z" id="Path"></path>
                </g>
            </g>
        </g>
    </g>
</svg>